# xmcd CD database file generated by Grip 2.95
# 
# Track frame offsets:
#       150
#       14137
#       34612
#       56887
#       67837
#       78562
#       90150
#       101887
#       116512
#       133987
#       147937
#       156337
#       168000
#       196650
#       217087
#       230887
# 
# Disc length: 3409 seconds
# 
# Revision: 3
# Processed by: cddbd v1.5.1PL0 Copyright (c) Steve Scherf et al.
# Submitted via: Grip 2.95
# 
DISCID=e30d4f10
DTITLE=Various Artist - The Angels Are Singing
DYEAR=1900
DGENRE=
TTITLE0=Standing By The Bedside Of A Neighbor - The Cox Family
TTITLE1=My Warfare Will Soon Be Over - Ginny Hawker
TTITLE2=Memories Of That Bless And Burn - Dry Branch Fire Squad
TTITLE3=Count Your Blessings - Kathy Kallick And Laurie Lewis
TTITLE4=Keep Your Feet On The Ground - Rhonda Vincent
TTITLE5=Paul And Peter Walked - Claire Lynch
TTITLE6=When I Get Home - Laurie Lewis
TTITLE7=In My Time Of Dying - Stevens Sisters
TTITLE8=Faded Pressed Rose - Hazel Dickens
TTITLE9=He Will Set Your Fields On Fire - Wilma Lee Cooper
TTITLE10=Siz Feet Of Earth Makes Us All Of One Size - Olabelle Reed
TTITLE11=Hewed Out Of The Mountain - Phyllis Boyens
TTITLE12=Wayfaring Stranger - The Wayfaring Strangers
TTITLE13=A Few More Years Shall Roll - Hazel Dickens And Alice Gerrard
TTITLE14=Help Me Climb That Mountain - Lynn Morris
TTITLE15=There Is A Reason - Alison Krauss And Union Station
EXTD=
EXTT0=
EXTT1=
EXTT2=
EXTT3=
EXTT4=
EXTT5=
EXTT6=
EXTT7=
EXTT8=
EXTT9=
EXTT10=
EXTT11=
EXTT12=
EXTT13=
EXTT14=
EXTT15=
PLAYORDER=
